<svg xmlns="http://www.w3.org/2000/svg" width="682.96" height="500.448" viewBox="0 0 682.96 500.448">

  <style>
    #aureool {
      transform: rotate(-2deg);
      animation: show 4s ease-in-out forwards;
      animation-delay: 1.3s;
      animation-iteration-count: infinite;
      animation-direction: alternate;
      transform-origin: top right;
    }

    @keyframes show {
      from {
        transform: rotate(-2deg);
      }
      to {
        transform: rotate(2deg);
      }
    }
  </style>
    <g id="Group_260" data-name="Group 260" transform="translate(-298.52 -149.776)">
      <g id="bulb" transform="translate(595.578 163.289)">
        <path id="Path_299" data-name="Path 299" d="M1748.384,523.53c-14.612,2.4-18.952,21.583-6.8,30.162a11.148,11.148,0,0,1,4.335,6.451l2.212,8.921a4.859,4.859,0,0,0,5.5,3.625l5.536-.911a4.858,4.858,0,0,0,4.053-5.2c-.768-9.21-1.718-12.551,1.276-16.659C1773.252,537.9,1763,521.125,1748.384,523.53Z" transform="translate(-1717.021 -500.602)" fill="#f7cc7f"/>
        <g id="Group_230" data-name="Group 230" transform="translate(24.832 33.795)">
          <path id="Path_300" data-name="Path 300" d="M1761.728,580.455c-.952-7.891-2.287-16.222-2.741-18.585-8.376.462-5.193-8.367-1.327-4.777a7.317,7.317,0,0,1,1.965,3.931,21.651,21.651,0,0,0,7.98-2.325c-.133-1.946-.325-3.42.218-4.666.82-1.881,3.2-2.393,4.174-.56a2.928,2.928,0,0,1,.164,2.3c-.561,1.556-2.253,2.584-3.725,3.389.44,6.273,1.051,12.595,1.819,18.82l-.791.1c-.756-6.125-1.36-12.343-1.8-18.516a22.462,22.462,0,0,1-7.88,2.248c.573,3.021,1.84,11.141,2.733,18.55Zm-6.719-20.445c.744.8,1.991,1.154,3.811,1.071a6.48,6.48,0,0,0-1.7-3.4C1755.037,555.746,1753.761,558.664,1755.009,560.01Zm13.544-5.657a8.881,8.881,0,0,0-.178,3.929c1.2-.681,2.586-1.533,3.036-2.78a1.806,1.806,0,0,0-.93-2.34C1770.386,553.137,1768.874,553.618,1768.554,554.353Z" transform="translate(-1753.707 -552.332)" fill="#fae0b2"/>
        </g>
        <path id="Path_301" data-name="Path 301" d="M1764.159,614.686c.02.074.046.146.064.221l2.212,8.921a4.859,4.859,0,0,0,5.5,3.625l5.536-.911a4.858,4.858,0,0,0,4.053-5.2c-.342-4.1-.718-7.031-.769-9.39Z" transform="translate(-1735.331 -555.367)" fill="#96d9c9"/>
        <g id="Group_231" data-name="Group 231" transform="translate(15.965 5.93)">
          <path id="Path_302" data-name="Path 302" d="M1735.078,489.778l-4.37-7.976a1.594,1.594,0,0,1,2.8-1.531l4.37,7.976a1.594,1.594,0,1,1-2.8,1.531Z" transform="translate(-1730.512 -479.443)" fill="#fae0b2"/>
        </g>
        <g id="Group_232" data-name="Group 232" transform="translate(0 31.545)">
          <path id="Path_303" data-name="Path 303" d="M1699.729,550.461l-9.525-.833a1.594,1.594,0,0,1,.278-3.175l9.525.833a1.594,1.594,0,1,1-.278,3.175Z" transform="translate(-1688.75 -546.447)" fill="#fae0b2"/>
        </g>
        <g id="Group_233" data-name="Group 233" transform="translate(1.075 55.995)">
          <path id="Path_304" data-name="Path 304" d="M1692.022,619.17a1.593,1.593,0,0,1,.013-2.254,52.118,52.118,0,0,1,7.653-6.242,1.594,1.594,0,1,1,1.771,2.65,48.876,48.876,0,0,0-7.183,5.859A1.594,1.594,0,0,1,1692.022,619.17Z" transform="translate(-1691.562 -610.405)" fill="#fae0b2"/>
        </g>
        <g id="Group_234" data-name="Group 234" transform="translate(42.881)">
          <path id="Path_305" data-name="Path 305" d="M1802.1,479.766a1.594,1.594,0,0,1-1.129-1.951,60.6,60.6,0,0,0,1.965-12.375,1.594,1.594,0,1,1,3.182.171,63.781,63.781,0,0,1-2.068,13.027A1.594,1.594,0,0,1,1802.1,479.766Z" transform="translate(-1800.919 -463.931)" fill="#fae0b2"/>
        </g>
        <g id="Group_235" data-name="Group 235" transform="translate(53.805 23.04)">
          <path id="Path_306" data-name="Path 306" d="M1829.562,529.238a1.594,1.594,0,0,1,1.066-1.986l9.9-2.984a1.594,1.594,0,0,1,.921,3.052l-9.9,2.984A1.594,1.594,0,0,1,1829.562,529.238Z" transform="translate(-1829.494 -524.2)" fill="#fae0b2"/>
        </g>
        <g id="Group_236" data-name="Group 236" transform="translate(58.945 47.391)">
          <path id="Path_307" data-name="Path 307" d="M1854.134,594.934a1.586,1.586,0,0,1-.432-.06,50.007,50.007,0,0,1-9.916-3.975,1.594,1.594,0,0,1,1.5-2.814,46.84,46.84,0,0,0,9.283,3.721,1.594,1.594,0,0,1-.431,3.128Z" transform="translate(-1842.94 -587.898)" fill="#fae0b2"/>
        </g>
      </g>
      <g id="woman">
        <path id="Path_292" data-name="Path 292" d="M1552.219,659.232l-5.359,1.644-3.6-8.33-8.132,1.438-3.712-5.793-2.933,1.879,4.965,7.749,7.706-1.363,3.744,8.666,8.063-2.475Z" transform="translate(-994.174 -414.461)" fill="#50bfa5"/>
        <path id="Path_293" data-name="Path 293" d="M2451.13,1442.942l-5.359,1.645-3.6-8.33-8.131,1.438-3.713-5.793-2.932,1.879,4.965,7.749,7.706-1.363,3.744,8.665,8.063-2.475Z" transform="translate(-1549.442 -898.568)" fill="#50bfa5"/>
        <g id="Group_226" data-name="Group 226" transform="translate(493.913 418.419)">
          <g id="Group_225" data-name="Group 225">
            <path id="Path_294" data-name="Path 294" d="M1453.926,1355.881s-28.594-96.92-30.889-118.3,13.7-14.754,13.7-14.754-13.451-40.737-3.724-50.406,18.5,8.354,18.5,8.354,2.944-49.452,13.315-49.47c19.316-.034,18.935,53.933,18.935,53.933s4.93-21.128,15.273-15.336c15.6,8.735-6.77,51.076-6.77,51.076s19.875.015,26.856,10.036C1531.644,1249,1453.926,1355.881,1453.926,1355.881Z" transform="translate(-1422.812 -1131.307)" fill="#50bfa5"/>
          </g>
        </g>
        <g id="Group_228" data-name="Group 228" transform="translate(386.052 487.559)">
          <g id="Group_227" data-name="Group 227" transform="translate(0)">
            <path id="Path_295" data-name="Path 295" d="M1288.99,1454.771s-82.433-13.784-100.363-28.391-.183-21.193-.183-21.193-41.411-21.228-40.931-35.663,21.052-7.1,21.052-7.1-34.892-39.787-26.632-47.343c15.386-14.075,55.724,27.285,55.724,27.285s-11.977-19.669.636-22.782c19.023-4.694,33.063,43.806,33.063,43.806s-3.567-19.154,9.55-16.6C1264.44,1351.37,1288.99,1454.771,1288.99,1454.771Z" transform="translate(-1140.666 -1312.164)" fill="#50bfa5"/>
          </g>
          <path id="Path_296" data-name="Path 296" d="M1242.95,1346.792c-13.15-2.378-9.55,16.6-9.55,16.6s-14.04-48.5-33.063-43.806c-12.614,3.113-.636,22.782-.636,22.782s-40.338-41.36-55.724-27.285l146.78,139.709C1288.143,1441.45,1265,1350.779,1242.95,1346.792Z" transform="translate(-1142.711 -1312.164)" fill="#3c8f7c"/>
        </g>
        <g id="Group_229" data-name="Group 229" transform="translate(379.988 573.381)">
          <path id="Path_297" data-name="Path 297" d="M1302.642,1605.121s-43.411-44.148-65.274-48.746-17.93,10.957-17.93,10.957-43.374-37.931-53.426-28.741.821,18.063.821,18.063-36.129-6.4-41.3,5.455c-7.947,18.218,51.472,28.133,51.472,28.133s-24.9,1.725-19.125,13.149C1166.589,1620.619,1302.642,1605.121,1302.642,1605.121Z" transform="translate(-1124.802 -1536.966)" fill="#355389"/>
          <path id="Path_298" data-name="Path 298" d="M1126.716,1561.8c5.172-11.856,41.3-5.454,41.3-5.454s-10.873-8.873-.821-18.063,52.077,23.582,52.077,23.582-9.909-18.941,11.953-14.343,72.6,57.29,72.6,57.29Z" transform="translate(-1125.984 -1536.659)" fill="#466eb6"/>
        </g>
        <path id="Path_309" data-name="Path 309" d="M2410.073,684.566l-2.054,8.27L2394.348,691l-4.494,11.721-10.456.3.152,5.293,13.984-.4,4.259-11.108,14.223,1.908,3.09-12.445Z" transform="translate(-1519.793 -436.931)" fill="#f48c7f"/>
        <path id="Path_310" data-name="Path 310" d="M1725.833,1649.318H1485.507c-9.179,0-16.62-7.718-16.62-17.239v-10.25c0-9.521,7.441-17.239,16.62-17.239h240.326a34.047,34.047,0,0,0-.442,44.207Z" transform="translate(-957.36 -1005.24)" fill="#b75742"/>
        <path id="Path_311" data-name="Path 311" d="M1889.065,1618h-133.3c-9.179,0-16.621,7.719-16.621,17.24h0c0,9.521,7.441,17.239,16.621,17.239h133.308A34.2,34.2,0,0,1,1889.065,1618Z" transform="translate(-1124.303 -1013.521)" fill="#fae0b2"/>
        <path id="Path_312" data-name="Path 312" d="M1683.921,1521.047a1,1,0,0,0-.99-1.414H1555.766c-9.967,0-18.047,7.271-18.047,16.242h0c0,8.97,8.08,16.242,18.047,16.242h127.2a1,1,0,0,0,.992-1.421h0A31.117,31.117,0,0,1,1683.921,1521.047Z" transform="translate(-999.878 -952.761)" fill="#86b1f2"/>
        <path id="Path_313" data-name="Path 313" d="M1782,1527.54h-63.023c-11.7,0-21.181,6.093-21.181,13.611s9.483,13.61,21.181,13.61h63.438A31.061,31.061,0,0,1,1782,1527.54Z" transform="translate(-1098.76 -957.645)" fill="#f7cc7f"/>
        <g id="Group_238" data-name="Group 238" transform="translate(655.561 576.347)">
          <path id="Path_314" data-name="Path 314" d="M1857.058,1544.417h-8.208c-1.765,0-3.2.593-3.2,1.324v.119h11.4Z" transform="translate(-1845.654 -1544.417)" fill="#b75742"/>
          <path id="Path_315" data-name="Path 315" d="M1869.043,1547.737c0-1.833-2.144-3.32-4.788-3.32h-10.533c2.005,0,3.631,1.127,3.631,2.518l-.05,35.586,5.82-4.576,5.932,4.576Z" transform="translate(-1850.638 -1544.417)" fill="#f47458"/>
        </g>
        <g id="Group_240" data-name="Group 240" transform="translate(529.495 536.038)">
          <path id="Path_316" data-name="Path 316" d="M1720.248,1471h-73.991c-6.561,0-11.88-6.313-11.88-14.1h0c0-7.788,5.319-14.1,11.88-14.1h73.991a24.807,24.807,0,0,0-.528,27.4Z" transform="translate(-1589.08 -1441.337)" fill="#fae0b2"/>
          <path id="Path_317" data-name="Path 317" d="M1561.192,1454.538h0c0-7.788,5.445-14.1,12.161-14.1h75.114a.686.686,0,0,0,.63-.737h0a.684.684,0,0,0-.63-.723H1529.309c-7.412,0-13.421,6.967-13.421,15.561h0c0,8.595,6.009,15.562,13.421,15.562h119.157a.685.685,0,0,0,.63-.724h0a.688.688,0,0,0-.63-.738h-75.113C1566.637,1468.639,1561.192,1462.326,1561.192,1454.538Z" transform="translate(-1515.888 -1438.977)" fill="#466eb6"/>
          <g id="Group_239" data-name="Group 239" transform="translate(106.845 8.39)">
            <path id="Path_318" data-name="Path 318" d="M1806.779,1460.925h-8.208c-1.765,0-3.2.581-3.2,1.3v.117h11.4Z" transform="translate(-1795.375 -1460.925)" fill="#184655"/>
            <path id="Path_319" data-name="Path 319" d="M1818.762,1464.181c0-1.8-2.144-3.255-4.788-3.255h-10.533c2.006,0,3.632,1.105,3.632,2.469l-.05,34.9,5.82-4.488,5.932,4.488Z" transform="translate(-1800.358 -1460.925)" fill="#3c8f7c"/>
          </g>
        </g>
        <g id="Group_243" data-name="Group 243" transform="translate(546.982 246.823)">
          <g id="Group_242" data-name="Group 242" transform="translate(135.54 79.132)">
            <path id="Path_320" data-name="Path 320" d="M2151.894,892.4l10.923-2.874-7.4,98.744-13.1.437,6.61-92.719A4,4,0,0,1,2151.894,892.4Z" transform="translate(-2055.862 -889.492)" fill="#184655"/>
            <g id="Group_241" data-name="Group 241">
              <path id="Path_321" data-name="Path 321" d="M2172.122,991.031a3.566,3.566,0,0,1-.749-.011,4.38,4.38,0,0,1-3.586-4.819l7.27-92.849a3.982,3.982,0,0,1,4.27-3.891,4.38,4.38,0,0,1,3.586,4.82l-7.27,92.849A4.077,4.077,0,0,1,2172.122,991.031Z" transform="translate(-2071.591 -889.435)" fill="#f7cc7f"/>
              <path id="Path_322" data-name="Path 322" d="M1916.18,1152.643c0,.068.007.136.014.2h0c.342,3.777,3.27,6.6,6.537,6.31l92.248-8.256c3.268-.292,5.64-3.592,5.3-7.369-.015-.16-.035-.317-.059-.473Z" transform="translate(-1916.18 -1046.102)" fill="#f7cc7f"/>
            </g>
          </g>
          <path id="Path_323" data-name="Path 323" d="M2011.208,1424.074c-6.041,3.349-24.5-2.524-24.5-3.055-.265,5.047-20.675,54.437-20.675,54.437l.016,15.2s42.056,2,41.451-1.711-2.866-1.3-11.256-8.318c-.745-.623-12.524-3.357-9.336-10.329C1993.323,1456.251,2006.959,1432.839,2011.208,1424.074Z" transform="translate(-1811.433 -1138.669)" fill="#f7a491"/>
          <path id="Path_324" data-name="Path 324" d="M1960.351,1579.09l46.036.013c1.661-.169,2.05-1.52,1.463-2.342-1.209-1.692-10.031-5.682-15.962-8.329-10.33,1.207-28.49-2.766-30.152-5.121C1957.365,1569.168,1959.424,1578.9,1960.351,1579.09Z" transform="translate(-1807.121 -1226.564)" fill="#3c8f7c"/>
          <path id="Path_325" data-name="Path 325" d="M1935.783,1253.84c-.622-1.868,39.636-18.952,41.438-17,3.188,3.453-21.782,68.266-21.782,68.266l28.688,8.765s29.824-74.88,28.579-88.575-16.186-29.259-48.557-19.3S1935.783,1253.84,1935.783,1253.84Z" transform="translate(-1792.652 -1003.896)" fill="#355389"/>
          <path id="Path_326" data-name="Path 326" d="M2108.6,1448.529c-6.8-1.237-15.6-1.59-22.656-1.712.831,6.279,4.867,38.472,4.129,40.45a24.158,24.158,0,0,1-9.618,11.765s31.26,28.205,33.147,24.947-1.394-2.822-3.435-13.568c-.181-.954-4.7-15.954-4.981-24.045C2104.654,1470.935,2108.368,1457.1,2108.6,1448.529Z" transform="translate(-1882.116 -1154.605)" fill="#f7a491"/>
          <path id="Path_327" data-name="Path 327" d="M1858.815,1172.457c-4.361-2.327-15.683-2.408-28.131-1.6a285.65,285.65,0,0,0-71.314,14l-15.45,5.117.051-15.84s-49.148-8.223-50.858,3.958c-2.575,18.343.62,55.583,17,63.895,50.863,25.818,122.141-41.131,122.4-32.371.347,11.763,10.264,55.537,12.8,74.7,7.051.122,19.167.117,24.421-1.09C1870.749,1245.681,1871.229,1179.08,1858.815,1172.457Z" transform="translate(-1642.359 -983.854)" fill="#466eb6"/>
          <path id="Path_328" data-name="Path 328" d="M2077.911,1564.927,2113.052,1593c1.392.922,2.549.124,2.615-.884.138-2.075-4.157-10.753-7.068-16.558-8.756-5.614-20.3-20.255-20.1-23.129C2084.8,1555.553,2077.315,1564.191,2077.911,1564.927Z" transform="translate(-1880.523 -1219.841)" fill="#3c8f7c"/>
          <path id="Path_329" data-name="Path 329" d="M1679.48,717.938c-1.18-10.79-2.423-21.621-11.368-29.53-7.239-6.4-16.443-7.484-25.543-4.06-25.786,9.7-12.5,32.6-45.379,55.691-10.217,7.174-21.477,12.085-29.168,21.746-10.766,13.522-6.7,29.788,3.111,40.648,46.951,51.961,99.367-18.213,103.13-35.058C1677.063,754.843,1680.24,724.885,1679.48,717.938Z" transform="translate(-1561.631 -682.44)" fill="#13375b"/>
          <path id="Path_330" data-name="Path 330" d="M1749.2,896.326a143.3,143.3,0,0,0-7.786-12.681c-3.978-7.072-14.255-10.648-14.255-10.648s-3.438.07-7.385.263a3.123,3.123,0,0,1-.744,1.311c-1.484,1.112-9.985-.324-15.477,3.4-18.406,15.778-13.315,92.253-11.868,116.407l56.055.531s-7.067-51.972,4.322-65.325C1760,920.289,1754.894,906.814,1749.2,896.326Z" transform="translate(-1640.889 -800.149)" fill="#50bfa5"/>
          <path id="Path_331" data-name="Path 331" d="M1770.058,800.952s-3.081,22.006-5.233,27.353,11.833,16.784,23.469,20.255-3.556-11.812-3.074-17.529,2.6-32.783,2.6-32.783Z" transform="translate(-1687.01 -753.977)" fill="#f7a491"/>
          <path id="Path_332" data-name="Path 332" d="M1794.519,806.011c.34-4.477.588-7.762.588-7.762l-17.759,2.7s-.448,2.585-.943,6.241C1783.6,811.37,1790.078,810.052,1794.519,806.011Z" transform="translate(-1694.299 -753.977)" fill="#f47458"/>
          <path id="Path_333" data-name="Path 333" d="M1769.378,699.858a20.175,20.175,0,0,0-11.322,8.174c-4.322,6.6-7.288,26.014,6.948,35.078s25.306-3.757,25.49-16.263S1788,697.653,1769.378,699.858Z" transform="translate(-1680.761 -693.077)" fill="#f7a491"/>
          <path id="Path_334" data-name="Path 334" d="M1845.8,749.4c-1.215,3.018-3.624,4.89-5.382,4.183s-2.2-3.727-.984-6.745,3.624-4.89,5.382-4.183S1847.017,746.381,1845.8,749.4Z" transform="translate(-1732.811 -719.543)" fill="#f7a491"/>
          <path id="Path_335" data-name="Path 335" d="M1759.358,699.1s-8.925,20.017-16.765,21.8-7.727,11.86-7.727,11.86.176-23.26,7.523-28.595S1759.358,699.1,1759.358,699.1Z" transform="translate(-1668.64 -692.731)" fill="#13375b"/>
          <path id="Path_336" data-name="Path 336" d="M1749.694,759.339c1.032,3.251.088,6.452-2.11,7.149s-4.815-1.372-5.847-4.623-.087-6.451,2.11-7.149S1748.662,756.088,1749.694,759.339Z" transform="translate(-1672.627 -727.002)" fill="#f7a491"/>
          <path id="Path_337" data-name="Path 337" d="M1839.649,1045.193c-3.364-1.216-8.37-1.367-8.286-1.812.338-1.8,15.2,3.967,13.188,1.345-1.117-1.46-12.237-6.632-14.941-5.778-2.623.828-19.843,5.661-19.843,5.661l-47.063-11.03s-11.879-26.995-13.039-50.186c-9.819,1.328-16.5,3.754-25.039,8.491,4.115,22.179,14.12,58.13,25.177,64.876,4.652,2.838,60.2-3.4,60.2-3.4s12.241-.865,14.241-1.634c1.517-.584,5.423-2.783,7.547-3.385,4.829-1.367,13.433,2.065,13.46,1.12C1845.268,1048.776,1843.085,1046.435,1839.649,1045.193Z" transform="translate(-1662.316 -868.342)" fill="#f7a491"/>
          <path id="Path_338" data-name="Path 338" d="M1742.085,891.446c-.453-7.136-3.155-14.026-10.749-16.245a15.374,15.374,0,0,0-13.746,3.012c-4.474,3.655-5.723,9.516-5.7,15.064a215.34,215.34,0,0,0,3.207,38.062,81.435,81.435,0,0,1,28.317-8.912C1743.407,922.353,1742.684,900.877,1742.085,891.446Z" transform="translate(-1654.446 -801.174)" fill="#96d9c9"/>
        </g>
        <g id="Group_245" data-name="Group 245" transform="translate(811.597 175.461)">
          <path id="Path_342" data-name="Path 342" d="M2269,508.226l-12.494,3.411-2.691-15.141,4.089-.726,1.895,10.664,8.108-2.214Z" transform="translate(-2253.817 -495.77)" fill="#50bfa5"/>
        </g>
        <path id="Path_351" data-name="Path 351" d="M1651.778,1359.874H1462.454a10.645,10.645,0,0,0-10.645,10.645v8.954a10.645,10.645,0,0,0,10.645,10.645h189.325l-.1-.1A21.678,21.678,0,0,1,1651.778,1359.874Z" transform="translate(-946.811 -854.076)" fill="#f47458"/>
        <path id="Path_352" data-name="Path 352" d="M1785.388,1371.585H1684.179a10.645,10.645,0,0,0-10.645,10.645h0a10.645,10.645,0,0,0,10.645,10.645h101.207A21.709,21.709,0,0,1,1785.388,1371.585Z" transform="translate(-1083.773 -861.31)" fill="#fae0b2"/>
        <g id="Group_259" data-name="Group 259" transform="translate(298.52 643.796)">
          <path id="Path_383" data-name="Path 383" d="M915.031,1720.853a3.625,3.625,0,0,0-3.334,3.858c0,2.131,1.493,3.858,3.733,1.269h677.65c.868,0,1.572-1.138,1.578-2.548h0c.005-1.422-.7-2.58-1.578-2.58Z" transform="translate(-911.697 -1720.853)" fill="#184655"/>
        </g>
        <path id="Path_384" data-name="Path 384" d="M1251.67,602.494l3.556,7.035,8.035-.26,3.428,8.168,8.473-2.916,4.285,9.066,8.133-1.723,5.548,8.049-3.046,2.1L1285.932,626l-8.582,1.818-4.119-8.715-8.615,2.965-3.783-9.014-7.846.254-3.3-6.521-5.118,1.244-.874-3.6Z" transform="translate(-818.259 -386.234)" fill="#f7cc7f"/>
        <path id="Path_385" data-name="Path 385" d="M2382.447,1058.753l7.3,2.968,5.887-5.474,7.951,3.907,4.472-7.764,9.187,4.021,5-6.642,9.471,2.424-.917,3.584-7.082-1.812-5.276,7.008-8.83-3.865-4.547,7.895-8.773-4.311-5.749,5.346-6.769-2.751-3.041,4.3-3.021-2.137Z" transform="translate(-1518.751 -662.52)" fill="#50bfa5"/>
      </g>
      <g id="aureool">
        <path id="Path_308" data-name="Path 308" d="M2220.961,725.052l-5-11.814-12.564-2.582a1.762,1.762,0,0,1-.8-3.058l9.691-8.4-1.427-12.746a1.762,1.762,0,0,1,2.661-1.706l10.985,6.62,11.682-5.3a1.763,1.763,0,0,1,2.445,2l-2.9,12.493,8.647,9.473a1.763,1.763,0,0,1-1.151,2.944l-12.779,1.1-6.338,11.151A1.763,1.763,0,0,1,2220.961,725.052Z" transform="translate(-1410.208 -436.882)" fill="#f7cc7f"/>
        <g id="Group_244" data-name="Group 244" transform="translate(413.392 277.49)">
          <path id="Path_339" data-name="Path 339" d="M1287.992,843.883,1215.029,830.3a2.7,2.7,0,0,1-2.16-3.147l9.14-49.084a2.7,2.7,0,0,1,3.147-2.16l72.963,13.587a2.7,2.7,0,0,1,2.16,3.148l-9.14,49.084A2.7,2.7,0,0,1,1287.992,843.883Z" transform="translate(-1212.578 -770.813)" fill="#f7cc7f"/>
          <path id="Path_340" data-name="Path 340" d="M1279.15,779.616l-22.209-4.136a2.7,2.7,0,0,1-2.16-3.147l1.391-7.469a2.7,2.7,0,0,1,3.147-2.159l22.209,4.136a2.7,2.7,0,0,1,2.159,3.147l-1.391,7.469A2.7,2.7,0,0,1,1279.15,779.616Z" transform="translate(-1238.467 -762.659)" fill="#f7cc7f"/>
          <path id="Path_341" data-name="Path 341" d="M1290.918,850.151a2.7,2.7,0,0,1-3.092,1.92L1214.387,838.4a2.7,2.7,0,0,1-2.195-2.889l3.844-44a2.7,2.7,0,0,1,3.183-2.418l81.584,15.192a2.7,2.7,0,0,1,2.1,3.386Z" transform="translate(-1212.182 -778.958)" fill="#fae0b2"/>
        </g>
        <g id="Group_246" data-name="Group 246" transform="translate(426.502 392.91)">
          <path id="Path_343" data-name="Path 343" d="M1252.313,1072.227a19.324,19.324,0,0,1,10.087,2.584,14.592,14.592,0,0,1,5.375,5.554l-.58.4a13.116,13.116,0,0,0-6.72-4.134,16.176,16.176,0,0,0-7.5-.073Z" transform="translate(-1250.082 -1069.284)" fill="#355389"/>
          <path id="Path_344" data-name="Path 344" d="M1263.88,1075.86s-19.064,3.181-17.286,18.074,21.889,26.479,39.839,17.268c24.147-12.391,14.61-43.892-2.577-46.329S1263.88,1075.86,1263.88,1075.86Z" transform="translate(-1246.477 -1064.578)" fill="#f47458"/>
          <path id="Path_345" data-name="Path 345" d="M1309.808,1073.038s4.973-5.106,15.871-.461,11.686,26.309,1.967,25.05S1302.036,1076.164,1309.808,1073.038Z" transform="translate(-1284.317 -1068.314)" fill="#f48c7f"/>
        </g>
        <g id="Group_249" data-name="Group 249" transform="translate(483.768 149.776)">
          <path id="Path_346" data-name="Path 346" d="M1495.647,478.588l-78.408,27.969a4.858,4.858,0,0,1-6.208-2.944l-14.472-40.57a4.859,4.859,0,0,1,2.944-6.209l78.408-27.969a4.858,4.858,0,0,1,6.208,2.944l14.472,40.57A4.859,4.859,0,0,1,1495.647,478.588Z" transform="translate(-1396.275 -428.582)" fill="#86b1f2"/>
          <path id="Path_347" data-name="Path 347" d="M1471.507,515.433a15.538,15.538,0,1,1-19.855-9.414A15.538,15.538,0,0,1,1471.507,515.433Z" transform="translate(-1424.106 -475.855)" fill="#fff"/>
          <path id="Path_348" data-name="Path 348" d="M1473.432,521.5a4.582,4.582,0,1,1-5.855-2.776A4.581,4.581,0,0,1,1473.432,521.5Z" transform="translate(-1438.439 -484.101)" fill="#86b1f2"/>
          <path id="Rectangle_1606" data-name="Rectangle 1606" d="M7.071,0h.5a7.072,7.072,0,0,1,7.072,7.072v0a0,0,0,0,1,0,0H0a0,0,0,0,1,0,0v0A7.071,7.071,0,0,1,7.071,0Z" transform="translate(26.292 48.439) rotate(-19.632)" fill="#86b1f2"/>
          <g id="Group_247" data-name="Group 247" transform="translate(47.352 14.906)">
            <path id="Path_349" data-name="Path 349" d="M1522.122,483.764a1.982,1.982,0,0,1-.666-3.848l34.276-12.227a1.982,1.982,0,0,1,1.331,3.733l-34.276,12.226A1.971,1.971,0,0,1,1522.122,483.764Z" transform="translate(-1520.141 -467.574)" fill="#fff"/>
          </g>
          <g id="Group_248" data-name="Group 248" transform="translate(56.605 26.128)">
            <path id="Path_350" data-name="Path 350" d="M1546.325,510.441a1.982,1.982,0,0,1-.666-3.849l26.77-9.549a1.982,1.982,0,0,1,1.332,3.733l-26.77,9.549A1.983,1.983,0,0,1,1546.325,510.441Z" transform="translate(-1544.344 -496.928)" fill="#fff"/>
          </g>
        </g>
        <g id="Group_253" data-name="Group 253" transform="translate(845.315 445.242)">
          <g id="Group_251" data-name="Group 251">
            <path id="Path_353" data-name="Path 353" d="M2356.622,1262.9l-14.351-36.005a3.53,3.53,0,0,1,1.972-4.587l51.642-20.584a3.53,3.53,0,0,1,4.586,1.972l14.351,36.005a3.531,3.531,0,0,1-1.972,4.587l-51.641,20.583A3.531,3.531,0,0,1,2356.622,1262.9Z" transform="translate(-2342.019 -1201.469)" fill="#fae0b2"/>
            <path id="Path_354" data-name="Path 354" d="M2486.694,1253.17l-12.9-32.354a1.013,1.013,0,0,1,.566-1.317h0a1.013,1.013,0,0,1,1.316.566l12.9,32.354a1.013,1.013,0,0,1-.566,1.316h0A1.013,1.013,0,0,1,2486.694,1253.17Z" transform="translate(-2423.375 -1212.562)" fill="#466eb6"/>
            <path id="Path_355" data-name="Path 355" d="M2474.35,1251.379l-10.588-26.564a1.013,1.013,0,0,1,.566-1.316h0a1.013,1.013,0,0,1,1.316.566l10.587,26.564a1.013,1.013,0,0,1-.565,1.315h0A1.013,1.013,0,0,1,2474.35,1251.379Z" transform="translate(-2417.177 -1215.033)" fill="#466eb6"/>
            <path id="Path_356" data-name="Path 356" d="M2466.624,1261.17l-12.9-32.354a1.013,1.013,0,0,1,.566-1.316h0a1.013,1.013,0,0,1,1.316.566l12.9,32.354a1.013,1.013,0,0,1-.566,1.316h0A1.013,1.013,0,0,1,2466.624,1261.17Z" transform="translate(-2410.978 -1217.504)" fill="#466eb6"/>
            <path id="Path_357" data-name="Path 357" d="M2453.646,1257.787l-9.953-24.971a1.012,1.012,0,0,1,.566-1.316h0a1.013,1.013,0,0,1,1.316.566l9.954,24.971a1.013,1.013,0,0,1-.566,1.316h0A1.013,1.013,0,0,1,2453.646,1257.787Z" transform="translate(-2404.78 -1219.974)" fill="#466eb6"/>
            <g id="Group_250" data-name="Group 250" transform="translate(56.958 3.851)">
              <path id="Path_358" data-name="Path 358" d="M2497.024,1212.495l-.259-.651a.454.454,0,0,0-.582-.271l-4.9,1.953a.454.454,0,0,0-.236.6l.26.651a.454.454,0,0,0,.582.271l4.9-1.954A.454.454,0,0,0,2497.024,1212.495Z" transform="translate(-2491.012 -1211.542)" fill="#355389"/>
              <path id="Path_359" data-name="Path 359" d="M2499.931,1219.785l-.26-.651a.455.455,0,0,0-.582-.272l-4.9,1.954a.454.454,0,0,0-.235.6l.26.651a.453.453,0,0,0,.581.271l4.9-1.953A.455.455,0,0,0,2499.931,1219.785Z" transform="translate(-2492.806 -1216.045)" fill="#355389"/>
              <path id="Path_360" data-name="Path 360" d="M2502.835,1227.074l-.26-.651a.454.454,0,0,0-.581-.271l-4.9,1.954a.453.453,0,0,0-.235.6l.259.651a.454.454,0,0,0,.582.272l4.9-1.954A.455.455,0,0,0,2502.835,1227.074Z" transform="translate(-2494.601 -1220.548)" fill="#355389"/>
              <path id="Path_361" data-name="Path 361" d="M2505.741,1234.363l-.26-.651a.455.455,0,0,0-.582-.272l-4.9,1.954a.454.454,0,0,0-.235.6l.26.652a.454.454,0,0,0,.582.271l4.9-1.953A.454.454,0,0,0,2505.741,1234.363Z" transform="translate(-2496.396 -1225.051)" fill="#355389"/>
              <path id="Path_362" data-name="Path 362" d="M2508.646,1241.653l-.259-.651a.454.454,0,0,0-.582-.271l-4.9,1.954a.455.455,0,0,0-.236.6l.26.651a.455.455,0,0,0,.582.271l4.9-1.954A.454.454,0,0,0,2508.646,1241.653Z" transform="translate(-2498.19 -1229.554)" fill="#355389"/>
              <path id="Path_363" data-name="Path 363" d="M2511.552,1248.942l-.26-.651a.455.455,0,0,0-.582-.272l-4.9,1.954a.454.454,0,0,0-.236.6l.26.651a.454.454,0,0,0,.582.271l4.9-1.953A.455.455,0,0,0,2511.552,1248.942Z" transform="translate(-2499.985 -1234.056)" fill="#355389"/>
              <path id="Path_364" data-name="Path 364" d="M2514.458,1256.232l-.26-.651a.454.454,0,0,0-.582-.271l-4.9,1.953a.454.454,0,0,0-.235.6l.26.651a.454.454,0,0,0,.581.271l4.9-1.953A.454.454,0,0,0,2514.458,1256.232Z" transform="translate(-2501.78 -1238.559)" fill="#355389"/>
              <path id="Path_365" data-name="Path 365" d="M2517.362,1263.521l-.26-.652a.454.454,0,0,0-.581-.271l-4.9,1.954a.454.454,0,0,0-.236.6l.26.651a.454.454,0,0,0,.582.271l4.9-1.953A.454.454,0,0,0,2517.362,1263.521Z" transform="translate(-2503.574 -1243.062)" fill="#355389"/>
              <path id="Path_366" data-name="Path 366" d="M2520.269,1270.811l-.26-.651a.455.455,0,0,0-.582-.271l-4.9,1.953a.454.454,0,0,0-.235.6l.259.651a.454.454,0,0,0,.582.272l4.9-1.953A.454.454,0,0,0,2520.269,1270.811Z" transform="translate(-2505.37 -1247.565)" fill="#355389"/>
              <path id="Path_367" data-name="Path 367" d="M2523.174,1278.1l-.26-.651a.454.454,0,0,0-.582-.271l-4.9,1.953a.454.454,0,0,0-.236.6l.26.652a.454.454,0,0,0,.581.271l4.9-1.953A.455.455,0,0,0,2523.174,1278.1Z" transform="translate(-2507.164 -1252.068)" fill="#355389"/>
              <path id="Path_368" data-name="Path 368" d="M2526.079,1285.39l-.26-.652a.453.453,0,0,0-.581-.271l-4.9,1.953a.454.454,0,0,0-.235.6l.26.652a.454.454,0,0,0,.582.272l4.9-1.954A.454.454,0,0,0,2526.079,1285.39Z" transform="translate(-2508.959 -1256.571)" fill="#355389"/>
              <path id="Path_369" data-name="Path 369" d="M2528.985,1292.68l-.259-.651a.455.455,0,0,0-.582-.271l-4.9,1.954a.454.454,0,0,0-.235.6l.259.651a.454.454,0,0,0,.582.271l4.9-1.954A.454.454,0,0,0,2528.985,1292.68Z" transform="translate(-2510.754 -1261.073)" fill="#355389"/>
            </g>
          </g>
          <g id="Group_252" data-name="Group 252" transform="translate(65.997 32.247)">
            <path id="Path_370" data-name="Path 370" d="M2537.388,1286.164l-20.5,29.185a.782.782,0,0,0-.106.213l-2.089,6.413a.8.8,0,0,0,1.246.89l5.486-4.135a.8.8,0,0,0,.174-.18l20.548-29.26a.8.8,0,0,0-.225-1.138l-3.449-2.2A.8.8,0,0,0,2537.388,1286.164Z" transform="translate(-2514.655 -1285.823)" fill="#b75742"/>
            <path id="Path_371" data-name="Path 371" d="M2521.805,1366.7l-.051.072-5.293,3.99-1.443-.966,1.98-6.078A24.672,24.672,0,0,1,2521.805,1366.7Z" transform="translate(-2514.879 -1333.937)" fill="#f7cc7f"/>
          </g>
        </g>
        <g id="Group_254" data-name="Group 254" transform="translate(707.908 156.882)">
          <path id="Path_372" data-name="Path 372" d="M2008.258,460.248c2.95,2.355,8.082,9.931,14.63,15.251,3.831,3.111,6.781,2.32,11.67,2.911,23.2,2.8,16.912,7.546,19.694,8.012-.79,1.819-8.017,17.182-9.368,20.286a5.66,5.66,0,0,1-6.52,3.715c-4.8-.663-9.638-1.156-14.361-2.181-12.107-2.626-18.844-8.681-27.521-16.035a5.673,5.673,0,0,1-1.676-7.142C2000.362,472.231,2007.655,461.429,2008.258,460.248Z" transform="translate(-1989.759 -455.248)" fill="#466eb6"/>
          <path id="Path_373" data-name="Path 373" d="M2049.591,496.824c-.1,5.055.283,6.07-1.888,5.3a30.5,30.5,0,0,1-3.807-1.7c-.871-.45-.9-1.043-.2-1.753,1.03-1.034,2.087-2.041,3.118-3.045a4.475,4.475,0,0,1,1.964-5.375c.379-.222.1.248,3.333-7.187-10.683-1.318-18.221-2.2-31.255-3.8a17.533,17.533,0,0,1-9.279-4.038q-13.965-11.684-27.921-23.377a2.576,2.576,0,0,1-.42-3.8,2.916,2.916,0,0,1,2.874-.819c2.975.373,32.141,4,35.1,4.342a19.176,19.176,0,0,1,10.326,4.439q13.719,11.488,27.473,22.935c1.256,1.049,1.6,2.012,1.156,3.178a2.457,2.457,0,0,1-3.144,1.548c-1.156-.249-1.667.1-2.064,1.169-1.8,4.836-3.049,5.906-2.616,7.671C2052.675,493.872,2051.055,496.232,2049.591,496.824Z" transform="translate(-1982.585 -447.169)" fill="#86b1f2"/>
        </g>
        <g id="Group_256" data-name="Group 256" transform="translate(823.191 536.29)">
          <path id="Path_374" data-name="Path 374" d="M2284.428,1453.709l5.315,5.068a141.277,141.277,0,0,1,30.243,41.907l.814,1.725s13.919,1.23,15.862-11.354h0a210.319,210.319,0,0,1-30.559-44.881l-2.516-5.885Z" transform="translate(-2284.321 -1440.04)" fill="#466eb6"/>
          <path id="Path_375" data-name="Path 375" d="M2303.4,1439.869c.683.98-3.05,4.764-8.338,8.452s-10.153,5.929-10.836,4.95,3.074-4.808,8.362-8.5S2302.719,1438.89,2303.4,1439.869Z" transform="translate(-2284.147 -1439.636)" fill="#86b1f2"/>
          <path id="Path_376" data-name="Path 376" d="M2310.368,1440.308l-.017-.019s-10.595,8.968-14.962,9.883l1.349,1.835a56,56,0,0,0,5.27-3.283C2307.235,1445.079,2310.943,1441.34,2310.368,1440.308Z" transform="translate(-2291.091 -1440.04)" fill="#355389"/>
          <g id="Group_255" data-name="Group 255" transform="translate(6.416 26.306)">
            <path id="Path_377" data-name="Path 377" d="M2352.735,1508.449c.019,1.546-.572,8.218-11.673,11q1.1,1.492,2.153,3.011c7.027-2.077,10.188-5.685,11.608-8.431.224-.434.5-1.018.676-1.468Q2354.092,1510.522,2352.735,1508.449Z" transform="translate(-2325.72 -1508.449)" fill="#b75742"/>
            <path id="Path_378" data-name="Path 378" d="M2317.267,1531.127l-16.338-.584,3.871,3.286-2.313,4.2,15.464-3.942Z" transform="translate(-2300.93 -1522.097)" fill="#b75742"/>
            <path id="Path_379" data-name="Path 379" d="M2338.182,1542.01l-5.805,10.112,4.083-1.554,1.572,3.211,2.728-10.635Z" transform="translate(-2320.355 -1529.18)" fill="#b75742"/>
            <path id="Path_380" data-name="Path 380" d="M2344.332,1531.863a5.368,5.368,0,1,1,4.816-5.72A5.289,5.289,0,0,1,2344.332,1531.863Z" transform="translate(-2324.288 -1516.292)" fill="#f47458"/>
          </g>
        </g>
        <g id="Group_258" data-name="Group 258" transform="translate(848.692 293.946)">
          <path id="Path_381" data-name="Path 381" d="M2386.491,860.49l-34.406-30.7c-2.235-2-1.3-6.1,1.78-7.847l27.459-15.548a4.291,4.291,0,0,1,5.012.234l34.407,30.7c2.235,2,1.3,6.1-1.78,7.847L2391.5,860.725A4.292,4.292,0,0,1,2386.491,860.49Z" transform="translate(-2350.852 -805.706)" fill="#9bc1f9"/>
          <g id="Group_257" data-name="Group 257" transform="translate(31.129 4.535)">
            <path id="Path_382" data-name="Path 382" d="M2435.16,843.4l-2.868-23.589a2.116,2.116,0,0,1,1.469-2.156,1.366,1.366,0,0,1,1.867,1.116l2.64,21.706,26.09,6.309a1.44,1.44,0,0,1,.875,2.049,2.022,2.022,0,0,1-2.209,1.3Z" transform="translate(-2432.28 -817.569)" fill="#fff"/>
          </g>
        </g>
      </g>
    </g>
  </svg>
